<svg width="11" height="19" viewBox="0 0 11 19" fill="none" xmlns="http://www.w3.org/2000/svg">
<path fill-rule="evenodd" clip-rule="evenodd" d="M7.20714 9.32842L1.18499 15.3506C1.17199 15.3627 1.15915 15.3751 1.14648 15.3878L0.439372 16.0949C-0.146415 16.6806 -0.146415 17.6304 0.439372 18.2162C1.02516 18.802 1.97491 18.802 2.56069 18.2162L2.88846 17.8884L2.88912 17.8891L9.68201 11.0962C10.6583 10.1199 10.6583 8.53696 9.68201 7.56065L3.26778 1.14644L2.88912 0.767756L2.56067 0.439328C1.97489 -0.146459 1.02514 -0.146459 0.439353 0.439328C-0.146433 1.02511 -0.146433 1.97486 0.439353 2.56065L0.767798 2.88908L1.14646 3.26776C1.1479 3.2692 1.14934 3.27063 1.15078 3.27206L7.20714 9.32842Z" fill="#2675EC"/>
</svg>
