<svg width="16" height="17" viewBox="0 0 16 17" fill="none" xmlns="http://www.w3.org/2000/svg">
<path d="M4.14766 15.6712L6.11242 13.7064C6.65407 13.1647 6.65407 12.2833 6.11242 11.7417L5.21935 10.8486C4.80899 10.4382 4.80911 9.77048 5.2192 9.36026L9.09344 5.48933C9.50476 5.07801 10.1705 5.07794 10.5819 5.48933C10.7257 5.63318 11.1388 6.04623 11.475 6.38239C12.0142 6.9217 12.8929 6.92923 13.4402 6.38187L15.3983 4.41763C15.9399 3.87595 15.9399 2.99456 15.3997 2.45432C14.999 2.05007 14.8697 1.91968 14.69 1.73842C12.7366 -0.214955 9.55832 -0.214955 7.60504 1.73832L1.46847 7.87168C-0.489499 9.82962 -0.489653 12.9986 1.46847 14.9567L2.18293 15.6712C2.72461 16.2129 3.60597 16.2129 4.14766 15.6712ZM14.7434 3.10781C14.9239 3.28836 14.9239 3.58211 14.7429 3.76325L12.7848 5.72748C12.6038 5.90847 12.3109 5.90847 12.1299 5.72748L11.8024 5.4L14.4204 2.78202L14.7434 3.10781ZM2.12329 8.52672L8.25992 2.39333C9.77119 0.882056 12.1442 0.798989 13.7547 2.13786L11.1444 4.74824C10.3668 4.06233 9.18197 4.09092 8.43862 4.83427L4.56457 8.70508C4.56454 8.70511 4.56448 8.70517 4.56445 8.7052C3.82187 9.44775 3.79143 10.6325 4.47826 11.411L1.86782 14.0215C0.531267 12.4161 0.601616 10.0484 2.12329 8.52672ZM2.83784 15.0163L2.51035 14.6888L5.13005 12.0691L5.45751 12.3966C5.63806 12.5772 5.63809 12.8709 5.45751 13.0515L3.49275 15.0163C3.31216 15.1969 3.01836 15.1969 2.83784 15.0163Z" fill="#40D81A"/>
</svg>
