<svg width="73" height="72" viewBox="0 0 73 72" fill="none" xmlns="http://www.w3.org/2000/svg">
<rect x="0.5" width="72" height="72" rx="30" fill="#FF0000"/>
<path d="M24.7855 41.0267L29.1737 41.0267C30.3834 41.0267 31.3677 40.0424 31.3677 38.8327L31.3677 36.8381C31.3677 35.9215 32.1136 35.176 33.0296 35.1759L41.6788 35.1795C42.5974 35.1795 43.3409 35.9229 43.3409 36.8417C43.3409 37.163 43.3409 38.0855 43.3409 38.8363C43.3409 40.0408 44.3137 41.0304 45.5362 41.0304L49.9162 41.0235C51.126 41.0234 52.1103 40.0392 52.1103 38.8326C52.1142 37.9336 52.1155 37.6437 52.1172 37.2406C52.1172 32.8779 48.568 29.3286 44.2055 29.3286L30.5034 29.325C26.1305 29.325 22.5915 32.8637 22.5915 37.237L22.5915 38.8327C22.5915 40.0425 23.5757 41.0267 24.7855 41.0267ZM50.6476 38.8294C50.6476 39.2327 50.3196 39.5607 49.9151 39.5608L45.535 39.5677C45.1308 39.5677 44.8037 39.2406 44.8037 38.8364L44.8037 38.105L50.6508 38.105L50.6476 38.8294ZM30.5032 30.7878L44.2053 30.7914C47.5806 30.7914 50.3234 33.3486 50.6267 36.6422L44.7966 36.6422C44.6943 35.008 43.3393 33.7168 41.679 33.7168L33.0302 33.7132C33.0302 33.7132 33.03 33.7132 33.03 33.7132C31.3715 33.7131 30.0145 35.0022 29.9121 36.6386H24.0818C24.3821 33.3532 27.1046 30.7878 30.5032 30.7878ZM24.0541 38.8327V38.1013L29.905 38.1014L29.905 38.8327C29.905 39.2359 29.577 39.564 29.1737 39.564H24.7855C24.3822 39.564 24.0541 39.2359 24.0541 38.8327Z" fill="white"/>
</svg>
