<svg width="24" height="24" viewBox="0 0 24 24" fill="none" xmlns="http://www.w3.org/2000/svg">
<rect x="1" y="1" width="21.4186" height="21.4186" rx="2" stroke="#2675EC" stroke-width="2"/>
<path d="M9.56558 13.2076L3.00484 20.3647C2.78226 20.6075 2.93214 21.0002 3.2599 21.033L8.62788 21.5698H13.5581L20.0766 20.9772C20.2349 20.9628 20.3697 20.8561 20.4199 20.7054L21.5492 17.3174C21.5628 17.2767 21.5697 17.2339 21.5697 17.191V12.8859L22.0777 7.34397C22.1127 6.96258 21.6433 6.75485 21.3846 7.03716L13.2367 15.9257C13.0782 16.0987 12.8055 16.0987 12.647 15.9257L10.1553 13.2076C9.99676 13.0346 9.72411 13.0346 9.56558 13.2076Z" fill="#2675EC" stroke="#2675EC" stroke-width="2"/>
</svg>
