<svg width="22" height="23" viewBox="0 0 22 23" fill="none" xmlns="http://www.w3.org/2000/svg">
<mask id="path-1-inside-1_29_429" fill="white">
<path fill-rule="evenodd" clip-rule="evenodd" d="M0.794311 10.1787C0.794311 11.1471 1.57935 11.9322 2.54775 11.9322C2.64292 11.9322 2.73632 11.9246 2.82738 11.91C3.53333 13.9826 5.49655 15.4734 7.80798 15.4734C8.173 15.4734 8.52934 15.4362 8.87342 15.3654C9.48159 15.2403 10.1287 15.2594 10.6664 15.5699L18.497 20.0909C19.8304 20.8607 21.497 19.8984 21.497 18.3588L21.497 2.00298C21.497 0.463378 19.8304 -0.498872 18.497 0.270929L10.5865 4.83808C10.057 5.14378 9.42071 5.16711 8.8206 5.05009C8.49292 4.98619 8.15436 4.95271 7.80798 4.95271C5.52072 4.95271 3.57442 6.41251 2.84993 8.45125C2.75177 8.43419 2.6508 8.4253 2.54775 8.4253C1.57935 8.4253 0.794311 9.21035 0.794311 10.1787Z"/>
</mask>
<path d="M2.82738 11.91L4.72057 11.2652L4.17663 9.66826L2.51089 9.93521L2.82738 11.91ZM8.87342 15.3654L8.47044 13.4064L8.47044 13.4064L8.87342 15.3654ZM10.6664 15.5699L11.6664 13.8378L11.6664 13.8378L10.6664 15.5699ZM18.497 20.0909L17.497 21.8229L17.497 21.8229L18.497 20.0909ZM18.497 0.270929L17.497 -1.46112L17.497 -1.46112L18.497 0.270929ZM10.5865 4.83808L11.5865 6.57013L11.5865 6.57013L10.5865 4.83808ZM8.8206 5.05009L9.20339 3.08706L9.20339 3.08706L8.8206 5.05009ZM2.84993 8.45125L2.50764 10.4217L4.16964 10.7104L4.73448 9.12094L2.84993 8.45125ZM2.54775 9.93219C2.68392 9.93219 2.79431 10.0426 2.79431 10.1787L-1.20569 10.1787C-1.20569 12.2517 0.474785 13.9322 2.54775 13.9322L2.54775 9.93219ZM2.51089 9.93521C2.52411 9.93309 2.53653 9.93219 2.54775 9.93219L2.54775 13.9322C2.74931 13.9322 2.94854 13.9161 3.14387 13.8848L2.51089 9.93521ZM0.934191 12.5549C1.90772 15.413 4.61464 17.4734 7.80798 17.4734L7.80798 13.4734C6.37846 13.4734 5.15893 12.5521 4.72057 11.2652L0.934191 12.5549ZM7.80798 17.4734C8.30915 17.4734 8.80049 17.4223 9.2764 17.3244L8.47044 13.4064C8.25819 13.4501 8.03685 13.4734 7.80798 13.4734L7.80798 17.4734ZM9.27639 17.3244C9.42948 17.2929 9.54265 17.2894 9.61383 17.296C9.68038 17.3021 9.68789 17.3143 9.66641 17.3019L11.6664 13.8378C10.5497 13.1931 9.34819 13.2259 8.47044 13.4064L9.27639 17.3244ZM9.66641 17.3019L17.497 21.8229L19.497 18.3588L11.6664 13.8378L9.66641 17.3019ZM17.497 21.8229C20.1637 23.3625 23.497 21.438 23.497 18.3588L19.497 18.3588L19.497 18.3588L17.497 21.8229ZM23.497 18.3588L23.497 2.00298L19.497 2.00298L19.497 18.3588L23.497 18.3588ZM23.497 2.00298C23.497 -1.07622 20.1637 -3.00072 17.497 -1.46112L19.497 2.00298L23.497 2.00298ZM17.497 -1.46112L9.58649 3.10603L11.5865 6.57013L19.497 2.00298L17.497 -1.46112ZM9.58649 3.10603C9.6077 3.09378 9.60029 3.10574 9.53502 3.11214C9.46529 3.11897 9.35427 3.11649 9.20339 3.08706L8.43781 7.01312C9.30497 7.18221 10.487 7.20491 11.5865 6.57013L9.58649 3.10603ZM9.20339 3.08706C8.75026 2.9987 8.28352 2.95271 7.80798 2.95271L7.80798 6.95271C8.0252 6.95271 8.23558 6.97368 8.43781 7.01312L9.20339 3.08706ZM7.80798 2.95271C4.64797 2.95271 1.96435 4.97042 0.965388 7.78156L4.73448 9.12094C5.18448 7.8546 6.39347 6.95271 7.80798 6.95271L7.80798 2.95271ZM2.54775 10.4253C2.53558 10.4253 2.52203 10.4242 2.50764 10.4217L3.19223 6.48075C2.9815 6.44415 2.76602 6.4253 2.54775 6.4253L2.54775 10.4253ZM2.79431 10.1787C2.79431 10.3149 2.68392 10.4253 2.54775 10.4253L2.54775 6.4253C0.474784 6.4253 -1.20569 8.10578 -1.20569 10.1787L2.79431 10.1787Z" fill="white" mask="url(#path-1-inside-1_29_429)"/>
<rect x="8.74719" y="6.0242" width="2.47783" height="7.4335" fill="white"/>
<rect x="5.0304" y="13.4577" width="3.71675" height="8.67241" rx="1.85837" fill="white"/>
</svg>
