<svg width="24" height="23" viewBox="0 0 24 23" fill="none" xmlns="http://www.w3.org/2000/svg">
<path d="M11.9908 0.25C5.7635 0.25 0.720703 5.29 0.720703 11.5C0.720703 17.71 5.7635 22.75 11.9908 22.75C18.2295 22.75 23.2836 17.71 23.2836 11.5C23.2836 5.29 18.2295 0.25 11.9908 0.25ZM8.05363 7C8.98999 7 9.74584 7.75375 9.74584 8.6875C9.74584 9.62125 8.98999 10.375 8.05363 10.375C7.11727 10.375 6.36142 9.62125 6.36142 8.6875C6.36142 7.75375 7.11727 7 8.05363 7ZM12.0021 18.25C9.42996 18.25 7.24137 16.3825 6.36142 13.75H17.6428C16.7629 16.3825 14.5743 18.25 12.0021 18.25ZM15.9506 10.375C15.0143 10.375 14.2584 9.62125 14.2584 8.6875C14.2584 7.75375 15.0143 7 15.9506 7C16.887 7 17.6428 7.75375 17.6428 8.6875C17.6428 9.62125 16.887 10.375 15.9506 10.375Z" fill="#2675EC"/>
</svg>
